<svg id="Layer_1" data-name="Layer 1" xmlns="http://www.w3.org/2000/svg" viewBox="0 0 335.74 304.41"><defs><style>.cls-1{fill:#e30613;}</style></defs><path class="cls-1" d="M.17,107.57C-.31,86,.14,64.51,6,43.52c.08-.31,0-.65.12-1,4.43-20,16.12-32,36.93-34.86,20.34-2.77,40.63-5.76,61.22-6.13,16.31-.3,32.63-1.89,48.91-1.5,26.08.64,52.16,2,78.17,3.93,11.3.82,22.49,3.46,33.67,5.61,12.91,2.48,22,10,26.07,22.49a207,207,0,0,1,7.74,31.17c3.65,23,2.66,46.26,1.92,69.41a163.94,163.94,0,0,1-7.31,45.19c-1.41,4.38-2.84,6.27-8.11,5.31-4.22-.77-8.87.93-13.35,1.36a40.65,40.65,0,0,1-7.48.1c-2.24-.2-4.44-1.25-6.67-1.29-7.81-.14-7.83,0-10.2-7.24-1.72-5.25-3.17-10.61-5.11-15.78-4.37-11.68-15.73-17.37-26.59-13.55-12,4.24-17.38,14.79-13.59,27.32,3.39,11.22,7.1,22.34,10.54,33.54,1.63,5.33,1.29,6.16-3.61,6.23-30,.4-60,4.27-90,.8-5.49-.63-11.1-.17-16.64-.44-22.14-1.08-44.15-3.11-65.9-7.71-13.76-2.91-22.48-10.71-27.4-23.72-5.83-15.44-8-31.51-9-47.79C-.27,125.89.17,116.71.17,107.57Zm114.54.37c0,13.4-.13,26.8,0,40.19.13,10.08,5.66,13.27,14.77,8.82.29-.14.6-.25.88-.41,23.19-13.36,46.44-26.59,69.51-40.14,9-5.27,9-11.73,0-17q-34.6-20.32-69.53-40.07c-9.84-5.56-15.53-2-15.62,9.42C114.62,81.8,114.7,94.87,114.71,107.94Zm160.7,196.47c-10.65-.31-23.91-6-34.55-16-13.79-12.92-26.47-27-39.31-40.94-5.68-6.14-5.05-14.09.61-19.14,4.25-3.8,8.84-4.21,14.39-1,3.6,2.11,7,4.53,10.52,6.81-1.08-4.34-1.92-8.74-3.27-13-4.85-15.19-10-30.3-14.76-45.5-1-3.33-2-7-1.74-10.38.69-7.4,6.31-12.52,13.46-13.35,6.62-.77,12.64,2.54,15.48,9.49,2.95,7.21,5.18,14.72,7.68,22.11a46.23,46.23,0,0,1,2,6.54c.44,2.44,1.14,3.61,3.75,2.16,5.88-3.26,11.66-3.36,17.59.25,1.11.67,3.67,0,4.94-.84,5.37-3.8,10.84-4.42,16.44-1,2.6,1.6,4.48,1.12,7.13-.11,12-5.61,19.9-2.16,24.1,10.49,4.71,14.2,9.18,28.49,13.7,42.76,5.49,17.36.67,34-13.18,45.76C309.56,298.7,293.93,304.43,275.41,304.41Zm4.06-8.31c16.79-.76,31.37-6.18,41.85-19.93,5.82-7.65,8.3-16.35,5.43-25.81-4.82-15.9-10-31.7-15-47.52a13.6,13.6,0,0,0-2.32-4.28,5.82,5.82,0,0,0-7.94-1.4,10.94,10.94,0,0,0-4,6.1c-.43,1.59,1,3.67,1.5,5.54a68.46,68.46,0,0,1,2.42,9.44c.16,1.2-1.22,3.61-2.13,3.73a6.84,6.84,0,0,1-4.85-1.67c-1.09-1-1.41-2.86-1.92-4.39-1.36-4-2.53-8.09-4-12.06-2.19-6-5-8-9-6.83-4.52,1.4-6,5.08-4.25,11,1.09,3.76,2.62,7.43,3.2,11.26.2,1.31-1.58,3.44-3,4.27-.78.46-3.23-.61-4-1.67-1.27-1.81-1.88-4.12-2.62-6.28-1.27-3.69-2.29-7.48-3.69-11.12-2.1-5.44-5.14-7.21-9.46-5.88-3.57,1.11-4.89,4.17-3.77,9.84a56.78,56.78,0,0,0,2.77,9.36c1.17,3.06,1.77,6.15-1.82,7.44-3.75,1.36-5-1.8-5.88-4.73-.59-1.86-1.28-3.69-1.87-5.55-3.27-10.24-6.51-20.5-9.8-30.73-2.09-6.51-4-13.08-6.49-19.46-1.53-4-5.32-5.6-8.58-4.42-4,1.45-5.56,4.63-4.41,9.35.47,1.89,1.11,3.75,1.71,5.61q9.59,29.76,19.19,59.53c.6,1.86,1.71,3.79,1.55,5.59-.2,2.33-.82,5.61-2.41,6.56s-5.06.4-7.06-.68c-2.8-1.52-5-4.15-7.5-6.25-2.26-1.88-4.35-4.26-7-5.31a8.94,8.94,0,0,0-7,.51c-.9.53-.3,4.09.09,6.2a7.16,7.16,0,0,0,2.16,3.22c13,13.26,25.71,26.95,39.37,39.55C257.32,291.88,267.93,295.72,279.47,296.1Z"/></svg>